<mxfile host="app.diagrams.net" agent="Mozilla/5.0 (Windows NT 10.0; Win64; x64) AppleWebKit/537.36 (KHTML, like Gecko) Chrome/140.0.0.0 Safari/537.36" version="28.2.5">
  <diagram name="Page-1" id="z1AjqIAgL2wnwryFTvFk">
    <mxGraphModel dx="983" dy="512" grid="1" gridSize="10" guides="1" tooltips="1" connect="1" arrows="1" fold="1" page="1" pageScale="1" pageWidth="3300" pageHeight="4681" math="0" shadow="0">
      <root>
        <mxCell id="0" />
        <mxCell id="1" parent="0" />
        <mxCell id="u2tTZq7CmwmTkS-fMIuM-3" value="" style="edgeStyle=orthogonalEdgeStyle;rounded=0;orthogonalLoop=1;jettySize=auto;html=1;" edge="1" parent="1" source="u2tTZq7CmwmTkS-fMIuM-1" target="u2tTZq7CmwmTkS-fMIuM-2">
          <mxGeometry relative="1" as="geometry" />
        </mxCell>
        <mxCell id="u2tTZq7CmwmTkS-fMIuM-1" value="START" style="rounded=1;whiteSpace=wrap;html=1;" vertex="1" parent="1">
          <mxGeometry x="580" y="50" width="120" height="60" as="geometry" />
        </mxCell>
        <mxCell id="u2tTZq7CmwmTkS-fMIuM-5" value="" style="edgeStyle=orthogonalEdgeStyle;rounded=0;orthogonalLoop=1;jettySize=auto;html=1;" edge="1" parent="1" source="u2tTZq7CmwmTkS-fMIuM-2" target="u2tTZq7CmwmTkS-fMIuM-4">
          <mxGeometry relative="1" as="geometry" />
        </mxCell>
        <mxCell id="u2tTZq7CmwmTkS-fMIuM-2" value="n, m" style="shape=parallelogram;perimeter=parallelogramPerimeter;whiteSpace=wrap;html=1;fixedSize=1;" vertex="1" parent="1">
          <mxGeometry x="580" y="180" width="120" height="60" as="geometry" />
        </mxCell>
        <mxCell id="u2tTZq7CmwmTkS-fMIuM-9" value="" style="edgeStyle=orthogonalEdgeStyle;rounded=0;orthogonalLoop=1;jettySize=auto;html=1;" edge="1" parent="1" source="u2tTZq7CmwmTkS-fMIuM-4" target="u2tTZq7CmwmTkS-fMIuM-8">
          <mxGeometry relative="1" as="geometry" />
        </mxCell>
        <mxCell id="u2tTZq7CmwmTkS-fMIuM-13" value="" style="edgeStyle=orthogonalEdgeStyle;rounded=0;orthogonalLoop=1;jettySize=auto;html=1;entryX=0;entryY=0.5;entryDx=0;entryDy=0;" edge="1" parent="1" source="u2tTZq7CmwmTkS-fMIuM-4" target="u2tTZq7CmwmTkS-fMIuM-6">
          <mxGeometry relative="1" as="geometry">
            <mxPoint x="520" y="580" as="targetPoint" />
            <Array as="points">
              <mxPoint x="480" y="350" />
              <mxPoint x="480" y="730" />
            </Array>
          </mxGeometry>
        </mxCell>
        <mxCell id="u2tTZq7CmwmTkS-fMIuM-4" value="n % 2 == 0" style="rhombus;whiteSpace=wrap;html=1;" vertex="1" parent="1">
          <mxGeometry x="565" y="310" width="150" height="80" as="geometry" />
        </mxCell>
        <mxCell id="u2tTZq7CmwmTkS-fMIuM-6" value="END" style="rounded=1;whiteSpace=wrap;html=1;" vertex="1" parent="1">
          <mxGeometry x="590" y="700" width="120" height="60" as="geometry" />
        </mxCell>
        <mxCell id="u2tTZq7CmwmTkS-fMIuM-11" value="" style="edgeStyle=orthogonalEdgeStyle;rounded=0;orthogonalLoop=1;jettySize=auto;html=1;exitX=0;exitY=0.5;exitDx=0;exitDy=0;entryX=0.5;entryY=0;entryDx=0;entryDy=0;" edge="1" parent="1" source="u2tTZq7CmwmTkS-fMIuM-8" target="u2tTZq7CmwmTkS-fMIuM-6">
          <mxGeometry relative="1" as="geometry">
            <mxPoint x="790" y="440" as="sourcePoint" />
            <mxPoint x="620" y="445" as="targetPoint" />
          </mxGeometry>
        </mxCell>
        <mxCell id="u2tTZq7CmwmTkS-fMIuM-18" value="" style="edgeStyle=orthogonalEdgeStyle;rounded=0;orthogonalLoop=1;jettySize=auto;html=1;" edge="1" parent="1" source="u2tTZq7CmwmTkS-fMIuM-8" target="u2tTZq7CmwmTkS-fMIuM-17">
          <mxGeometry relative="1" as="geometry" />
        </mxCell>
        <mxCell id="u2tTZq7CmwmTkS-fMIuM-8" value="m % 2 == 0" style="rhombus;whiteSpace=wrap;html=1;" vertex="1" parent="1">
          <mxGeometry x="800" y="400" width="80" height="80" as="geometry" />
        </mxCell>
        <mxCell id="u2tTZq7CmwmTkS-fMIuM-20" value="" style="edgeStyle=orthogonalEdgeStyle;rounded=0;orthogonalLoop=1;jettySize=auto;html=1;" edge="1" parent="1" source="u2tTZq7CmwmTkS-fMIuM-17" target="u2tTZq7CmwmTkS-fMIuM-19">
          <mxGeometry relative="1" as="geometry" />
        </mxCell>
        <mxCell id="u2tTZq7CmwmTkS-fMIuM-17" value="c = n + m" style="whiteSpace=wrap;html=1;" vertex="1" parent="1">
          <mxGeometry x="930" y="490" width="120" height="60" as="geometry" />
        </mxCell>
        <mxCell id="u2tTZq7CmwmTkS-fMIuM-22" value="" style="edgeStyle=orthogonalEdgeStyle;rounded=0;orthogonalLoop=1;jettySize=auto;html=1;exitX=0.488;exitY=0.849;exitDx=0;exitDy=0;exitPerimeter=0;" edge="1" parent="1" source="u2tTZq7CmwmTkS-fMIuM-19" target="u2tTZq7CmwmTkS-fMIuM-21">
          <mxGeometry relative="1" as="geometry" />
        </mxCell>
        <mxCell id="u2tTZq7CmwmTkS-fMIuM-19" value="c" style="shape=document;whiteSpace=wrap;html=1;boundedLbl=1;" vertex="1" parent="1">
          <mxGeometry x="930" y="620" width="120" height="80" as="geometry" />
        </mxCell>
        <mxCell id="u2tTZq7CmwmTkS-fMIuM-24" value="" style="edgeStyle=orthogonalEdgeStyle;rounded=0;orthogonalLoop=1;jettySize=auto;html=1;" edge="1" parent="1" source="u2tTZq7CmwmTkS-fMIuM-21" target="u2tTZq7CmwmTkS-fMIuM-23">
          <mxGeometry relative="1" as="geometry" />
        </mxCell>
        <mxCell id="u2tTZq7CmwmTkS-fMIuM-21" value="" style="shape=waypoint;sketch=0;size=6;pointerEvents=1;points=[];fillColor=default;resizable=0;rotatable=0;perimeter=centerPerimeter;snapToPoint=1;" vertex="1" parent="1">
          <mxGeometry x="980" y="720" width="20" height="20" as="geometry" />
        </mxCell>
        <mxCell id="u2tTZq7CmwmTkS-fMIuM-23" value="" style="shape=waypoint;sketch=0;size=6;pointerEvents=1;points=[];fillColor=default;resizable=0;rotatable=0;perimeter=centerPerimeter;snapToPoint=1;" vertex="1" parent="1">
          <mxGeometry x="710" y="720" width="20" height="20" as="geometry" />
        </mxCell>
      </root>
    </mxGraphModel>
  </diagram>
</mxfile>
